<?xml version="1.0" encoding="utf-8" ?>
<svg baseProfile="tiny" height="600px" version="1.2" width="800px" xmlns="http://www.w3.org/2000/svg" xmlns:ev="http://www.w3.org/2001/xml-events" xmlns:xlink="http://www.w3.org/1999/xlink"><defs /><rect fill="#4CAF50" height="50" rx="15" ry="15" width="150" x="100" y="50" /><text fill="white" font-family="Arial" font-size="14px" x="135" y="80">Source Control</text><rect fill="#2196F3" height="50" rx="15" ry="15" width="150" x="300" y="50" /><text fill="white" font-family="Arial" font-size="14px" x="365" y="80">Build</text><rect fill="#FF9800" height="50" rx="15" ry="15" width="150" x="500" y="50" /><text fill="white" font-family="Arial" font-size="14px" x="535" y="80">Test</text><rect fill="#FF5722" height="50" rx="15" ry="15" width="150" x="300" y="200" /><text fill="white" font-family="Arial" font-size="14px" x="365" y="230">Staging</text><rect fill="#9C27B0" height="50" rx="15" ry="15" width="150" x="100" y="350" /><text fill="white" font-family="Arial" font-size="14px" x="135" y="380">Production</text><rect fill="#3F51B5" height="50" rx="15" ry="15" width="150" x="500" y="350" /><text fill="white" font-family="Arial" font-size="14px" x="535" y="380">Monitoring</text><line stroke="rgb(0%,0%,0%)" stroke-width="2" x1="250" x2="350" y1="75" y2="75" /><line stroke="rgb(0%,0%,0%)" stroke-width="2" x1="450" x2="550" y1="75" y2="75" /><line stroke="rgb(0%,0%,0%)" stroke-width="2" x1="400" x2="400" y1="230" y2="300" /><line stroke="rgb(0%,0%,0%)" stroke-width="2" x1="250" x2="350" y1="350" y2="350" /></svg>